<?xml version="1.0" encoding="UTF-8" standalone="no"?>
<svg
   xmlns:dc="http://purl.org/dc/elements/1.1/"
   xmlns:cc="http://creativecommons.org/ns#"
   xmlns:rdf="http://www.w3.org/1999/02/22-rdf-syntax-ns#"
   xmlns:svg="http://www.w3.org/2000/svg"
   xmlns="http://www.w3.org/2000/svg"
   xmlns:sodipodi="http://sodipodi.sourceforge.net/DTD/sodipodi-0.dtd"
   xmlns:inkscape="http://www.inkscape.org/namespaces/inkscape"
   inkscape:version="1.0 (4035a4fb49, 2020-05-01)"
   sodipodi:docname="kelloggs-w.svg"
   version="1.1"
   viewBox="0 0 150 150"
   id="logosandtypes_com">
  <metadata
     id="metadata861">
    <rdf:RDF>
      <cc:Work
         rdf:about="">
        <dc:format>image/svg+xml</dc:format>
        <dc:type
           rdf:resource="http://purl.org/dc/dcmitype/StillImage" />
        <dc:title></dc:title>
      </cc:Work>
    </rdf:RDF>
  </metadata>
  <defs
     id="defs859" />
  <sodipodi:namedview
     inkscape:current-layer="logosandtypes_com"
     inkscape:window-maximized="1"
     inkscape:window-y="-8"
     inkscape:window-x="3832"
     inkscape:cy="75"
     inkscape:cx="75"
     inkscape:zoom="3.9066667"
     showgrid="false"
     id="namedview857"
     inkscape:window-height="1017"
     inkscape:window-width="1920"
     inkscape:pageshadow="2"
     inkscape:pageopacity="0"
     guidetolerance="10"
     gridtolerance="10"
     objecttolerance="10"
     borderopacity="1"
     bordercolor="#666666"
     pagecolor="#ffffff" />
  <style
     id="style848">.st1{fill:#d31145}</style>
  <g
     id="Layer_3_2_">
    <g
       id="Layer_3_1_">
      <path
         fill="none"
         d="M0 0h150v150H0V0z"
         id="Layer_3" />
    </g>
  </g>
  <g
     style="fill:#ffffff"
     transform="matrix(0.75555876,0,0,0.76022252,16.77729,21.13672)"
     id="kelloggs">
    <path
       style="fill:#ffffff"
       id="path853"
       d="m 74.8,55.9 c 2,-3.5 -3.7,5.9 -10.1,19.3 -3.9,8 -8.7,19 -13.8,28.6 -2.5,4.6 -5,9 -7.4,12.7 -1.3,1.9 -2.7,3.7 -4,5.2 -2.1,2.5 -10.7,11.6 -19,6.2 -3.7,-2.4 -4.9,-7 -4.4,-11.2 0.4,-2.6 1.2,-5 2.5,-7.3 1.6,-2.6 3.5,-5 5.6,-7.2 3.6,-4 8.6,-9.1 13.5,-14.4 2.4,-2.6 4.3,-5 6.4,-7.4 10.4,-12.5 16.4,-21.6 13,-23.8 0,0 -2.8,-2 -8.2,5.1 -0.9,1.1 -1.7,2.3 -2.8,3.9 -3.2,4.8 -6.8,9.4 -10.6,13.7 -1.5,1.6 -3.1,2.9 -5,4 -2.1,1.2 -4.5,1.8 -7,1.7 -2.3,-0.1 -4.4,-1.2 -5.8,-2.9 -4.5,-5.3 -2.2,-11.3 1.7,-16 3,-3.4 6.5,-6.3 10.4,-8.5 0,0 12.9,-7.6 19.3,-10.9 2.6,-1.4 8.2,-4.6 13.6,-8.1 7.8,-5.2 15,-10.1 15,-10.1 0,0 6.6,-5 10.2,-1.7 0,0 2.3,1.8 0.2,6.1 -2,4.5 -7.5,13 -13.3,23 m 67.7,-45.2 c -1.1,-2.5 -3.2,-4.4 -5.7,-5.2 -2.6,-0.9 -5.5,-0.8 -8,0.2 -3.1,1.4 -5.9,3.5 -8.1,6.2 -1.4,1.5 -2.6,3.1 -3.7,4.8 -10.4,16 -13.4,20.3 -13.4,20.3 0,0 -11.6,18.1 -26,28.3 -2.8,1.8 -5.4,3.8 -7.8,6 -1.9,1.7 -2.7,4.3 -2.1,6.8 0.9,3.3 0.9,6.8 0,10.1 -0.6,2.1 -1.9,6.3 -3.6,11.5 -2.4,7.2 -5.3,16.4 -4.4,24.9 1.4,12.7 8.6,15.1 12.4,16.2 2.8,0.8 5.7,0.9 8.5,0.5 3.8,-0.4 7.1,-3.1 8.1,-6.8 0,0 0.4,-1.2 -0.9,-0.5 0,0 -4,2.5 -5.8,-3.8 -0.5,-1.7 -0.7,-3.5 -0.8,-5.2 -0.3,-6.7 3.8,-23.1 4.7,-35.1 0.7,-10.2 -2.7,-13.4 -3,-13.8 -0.3,-0.4 -0.5,-0.5 -0.3,-0.8 0.1,-0.3 1,-0.9 1.7,-1.3 0,0 2.5,-1.4 4.5,-2.6 3,-1.9 7.3,-4.8 12.6,-8.5 8.2,-5.3 15.8,-11.4 22.9,-18.2 2.7,-2.5 5.2,-5.2 7.5,-8.1 3.1,-3.8 5.8,-7.9 8.1,-12.2 3.2,-6.4 3.6,-10.9 2.6,-13.7"
       class="st1" />
  </g>
</svg>
