<?xml version="1.0" encoding="utf-8"?>
<!-- Generator: Adobe Illustrator 19.0.1, SVG Export Plug-In . SVG Version: 6.00 Build 0)  -->
<svg version="1.1" xmlns="http://www.w3.org/2000/svg" xmlns:xlink="http://www.w3.org/1999/xlink" x="0px" y="0px"
	 viewBox="0 0 150 80" style="enable-background:new 0 0 150 80;" xml:space="preserve">
<style type="text/css">
	.st0{display:none;}
	.st1{display:inline;}
	.st2{fill:#FFFFFF;}
	.st3{fill:#BF2037;}
	.st4{display:inline;fill:#FFFFFF;}
	.st5{display:inline;fill:#FFCB05;}
	.st6{clip-path:url(#SVGID_2_);}
	.st7{fill:#FFCB05;}
	.st8{clip-path:url(#SVGID_4_);}
</style>
<g id="Container_x2F_URL" class="st0">
	<g class="st1">
		<rect x="-141.3" y="-111.8" class="st2" width="412.5" height="300"/>
		<path d="M270-110.5V187h-410v-297.5H270 M272.5-113h-415v302.5h415V-113L272.5-113z"/>
	</g>
	<text transform="matrix(1 0 0 1 -104.3659 170.6143)" class="st1" style="font-family:'ArialMT'; font-size:60px;">www.kfr.com</text>
</g>
<g id="ART_Up_250_x25_" class="st0">
	<g class="st1">
		<rect x="-111.3" y="-81.8" class="st2" width="352.5" height="197.5"/>
		<path class="st3" d="M240-80.5v195h-350v-195H240 M242.5-83h-355v200h355V-83L242.5-83z"/>
	</g>
	<rect x="-102.5" y="-73" class="st4" width="335" height="180"/>
	<g class="st1">
		<path d="M254.7-83c1.3,0,2.6,0.3,3.9,1c1.2,0.7,2.2,1.6,2.9,2.9c0.7,1.3,1.1,2.6,1.1,4c0,1.4-0.3,2.7-1,3.9
			c-0.7,1.2-1.7,2.2-2.9,2.9c-1.2,0.7-2.5,1-3.9,1s-2.7-0.3-3.9-1c-1.2-0.7-2.2-1.7-2.9-2.9c-0.7-1.2-1-2.5-1-3.9
			c0-1.4,0.4-2.7,1.1-4c0.7-1.3,1.7-2.2,2.9-2.9C252-82.7,253.3-83,254.7-83z M254.7-81.5c-1.1,0-2.1,0.3-3.1,0.8
			c-1,0.5-1.8,1.3-2.3,2.3c-0.6,1-0.9,2.1-0.9,3.2c0,1.1,0.3,2.2,0.8,3.2c0.6,1,1.3,1.8,2.3,2.3c1,0.6,2,0.8,3.1,0.8
			c1.1,0,2.2-0.3,3.1-0.8c1-0.6,1.8-1.3,2.3-2.3c0.6-1,0.8-2,0.8-3.2c0-1.1-0.3-2.2-0.9-3.2c-0.6-1-1.4-1.8-2.4-2.3
			C256.8-81.2,255.8-81.5,254.7-81.5z M251.1-70.9v-8.3h1.7c1.6,0,2.5,0,2.7,0c0.6,0,1,0.2,1.3,0.3c0.3,0.2,0.6,0.4,0.8,0.8
			c0.2,0.4,0.3,0.8,0.3,1.2c0,0.6-0.2,1.1-0.6,1.5c-0.4,0.4-0.9,0.7-1.7,0.8c0.3,0.1,0.4,0.2,0.6,0.3c0.1,0.1,0.3,0.3,0.6,0.6
			c0.1,0.1,0.3,0.4,0.6,1l1,1.7h-2.1l-0.7-1.4c-0.5-0.9-0.9-1.5-1.2-1.7c-0.3-0.2-0.7-0.4-1.2-0.4h-0.4v3.4H251.1z M252.8-75.7h0.7
			c1,0,1.6,0,1.8-0.1c0.2-0.1,0.4-0.2,0.6-0.4c0.1-0.2,0.2-0.4,0.2-0.6c0-0.2-0.1-0.4-0.2-0.6s-0.3-0.3-0.6-0.4
			c-0.2-0.1-0.9-0.1-1.8-0.1h-0.7V-75.7z"/>
	</g>
	<rect x="-102.5" y="-73" class="st5" width="120" height="180"/>
	<g class="st1">
		<path class="st3" d="M211.1-42.6c-3.1,0-5.9,2.5-9.5,5.4c-3.2,2.7-9.8,9.5-15.9,13.3c1.7-2.6,5.7-8.3,6.4-11
			c0.6-2.8-1.4-3.9-4.3-2.2c-3.1,1.9-6,11-10.4,11c-0.8,0-1.3-0.4-1.3-1.3c0-2.7,4.2-8,11.6-11c1.2-0.4,1.6-1.2,1.6-1.8
			c0-0.2,0-1.6-2.3-1.6c-7.3,0-17.3,8.6-18.7,15.1c-1.4,1.4-4,3.6-7.3,5c3.7-5.2,6.9-9.4,8.5-13.8c2-5.1-0.8-5.7-3.6-4.2
			c-2.7,1.5-4.7,5.5-5.4,7c-0.8,1.5-1.5,3.5-3.9,5.4c-2.4,1.9-4.9,1.6-3.1-2.2c1.6-3.3,5.1-6.9,8.2-8.5c0.7-0.4,1.4-0.6,1.3-1.6
			c0-1.5-1.8-2.6-4.4-1.5c-3.5,1.5-5.1,2.5-8,2.5c-2.3,0-3.5-0.6-4.5-1c-1.3-0.6-2.3-0.4-2.8-0.2c-0.5,0.2-1.2,0.6-1.8,1.3
			c-0.5,0.5-0.9,1.4-1,2c-0.7,4.1-4.3,11.5-6.9,11.5c-0.9,0-1.9-0.3-1.7-2.4c0.4-3.4,4.6-8.1,5.5-9c1-0.9,2.8-1.6,2.9-2.6
			c0.1-0.9-0.4-1.8-2.1-1.8c-5.6,0-13.1,7.8-13.8,14.7c-0.9,0.8-1.9,1.6-3.1,1.6c-2.6,0-3.3-2.4-3.1-4.3
			c6.8-6.1,19.7-19.8,20.1-29.5c0.1-2.3-1-3.5-2.9-3.5c-4.8,0-11.5,7-15.7,12.4c-5.1,6.7-8.3,14.7-9.4,20.8
			c-3.8,3.3-5.3,3.5-6.9,3.5c-2.3,0-3.1-1.6-3-2.9c6.3-5.8,17.4-19.5,17.6-26.3c0.1-2-1.1-3-3.1-3c-4.3,0-10.5,4.6-14.9,10.6
			c-4.4,6-7.3,13.1-8.1,19.5c-3.3,2.9-5.8,3.5-7.8,3.5c-1.2,0-2.1-0.9-2.4-1.2c2.9-1.7,9.6-5.9,9.6-12.2c0-3.1-2.1-4.5-4.2-4.5
			c-5.4,0-13.7,6.6-13.7,15.8c0,0.1,0,0.7,0.1,0.9c-2.4,0.8-4.1,1.7-3.7,3.4c0.4,1.6,2.3,1.5,4.9,0.6C75-19.8,77.5-18,81-18
			c4.8,0,8.4-2.3,11.3-4.7c1.2,2.8,4.2,4.3,7.3,4.3c3.8,0,7.5-2.6,10.5-4.9c0.4,2.2,2.5,5.6,6.4,5.6c3.5,0,6.1-2,8.3-4.2
			c0.5,2.2,2.6,4,5.2,4c8.8,0,13.8-12.5,14.9-17c0.2-0.6,0.7-0.7,1.1-0.6c1.6,0.6,2.4,0.9,4.5,0.6c-3.4,2.6-6.3,7.1-6.3,10.4
			c0,3.3,2.9,4.8,4.9,4.8c2.1,0,4.9-1.3,6.7-3c-0.5,1-1.1,2.4-2.2,3.5c-1.9,0.5-7.5,2.5-11,4.7c-3.4,2-6.6,5.3-6.6,9
			c0,2,1.7,4.4,5.5,4.4c6.5,0,11-4.3,17.2-15.4c5.1-2.1,8.1-4.1,10.1-5.8c0.9,1.5,2.6,2.2,4.3,2.2c2.5,0,4-0.7,6-2.1
			c-0.3,0.7-0.7,1.7-1.4,2.6c-3.6,1.5-8,3.5-10.2,4.8c-6,3.6-7.3,6.8-7.3,9.3c0,1.5,1.3,4.2,5.4,4.2c8.7,0,14.1-10.8,17.6-16.9
			c2.6-1.4,6.2-3.9,10-6.8c-0.1,0.5-0.2,0.9-0.2,1.5c0,2.7,2.5,5.2,6.5,5.2c8,0,10.4-5.9,10.3-12.2c0-2.1-0.3-3.7-0.4-4.4
			c-0.1-1.9,0.6-3,2.3-3c1.8,0,3-0.3,3-1.8C214.6-41.7,213.1-42.6,211.1-42.6 M130.9-53.8c0.2,0,0.3,0.2,0.3,0.5
			c-0.1,2.5-6.5,12.6-12.4,18.4C122.4-45.4,129.5-53.8,130.9-53.8 M80.2-28.6c0.2-4.5,3.8-7.9,5.2-7.9c0.5,0,0.8,0.3,0.8,0.9
			C86.1-34,84-30.7,80.2-28.6 M110.3-50.1c0.3,0,0.4,0.2,0.4,0.5c0,1.8-4.7,10.3-10.6,16.1C103.2-42.9,108.3-50.1,110.3-50.1
			 M142.8-6.8c-0.5,0-0.7-0.3-0.7-0.7c0-2.7,6-5.9,9.2-7.1C149.9-12.5,144.9-6.8,142.8-6.8 M166.9-6.7c-0.4,0-0.6-0.3-0.6-0.7
			c0-2.4,5.5-6.1,8.7-7.3C173.3-11.8,168.8-6.7,166.9-6.7 M199.9-24c-0.4,0-1-0.1-1-1.4c0-0.9-0.4-2-2-2c-0.2,0-0.5,0-0.7,0.1
			c3.5-2.8,6.2-5.8,8.7-7.8C204.4-28.8,202.9-24,199.9-24"/>
		<path class="st3" d="M196.9-43.8c-0.1,1.1-1.3,1.6-1.4,2.6c-0.1,0.6,0.3,1,1.1,1c1.8,0,6.7-2.8,7.1-7.2c0.2-2.2-1.2-4.1-3.6-4.1
			c-2.4,0-4.6,2.3-4.8,4.2C195-45.5,197-44.9,196.9-43.8"/>
		<path class="st3" d="M70-12.9c-1.6-0.1-2.3-1.9-2.3-4.2c0-2.5,1.6-7.9,2.2-10.4c0.6-2.6,0.9-6.7-1.4-9.1
			c8.8-3.6,21.9-15.7,23.6-18.3c1.7-2.6,2-6-0.3-7.7c-2.3-1.7-6.1,0.5-8.3,3.7c-6.2,8.9-9.9,13.2-14.1,16.8
			c-3.3,2.8-4.8,2.9-6.4,3.1c0,0,6-9.9,8.3-12.9c2.7-3.5-0.6-4.9-3.9-2.6c-0.7,0.4-5.8,4-12,7.2c-11,5.7-13.7,8.3-13.7,11.7
			c0,1.5,1.1,3.4,3.3,3.4c4.3,0,8.6-7.7,10.7-9.6c0.8-0.7,2.7-2.4,3.4-2.4c0.2,0,0.4,0.1,0.4,0.6c0,1.5-2.9,5.7-7.3,10.5
			c-6.5,7-11.7,9.8-11.7,14.2c0,2.9,2.2,4.5,4.5,4.5c5,0,8.3-6.6,10.3-9.9c0.8-1.3,5.2-9.5,6.1-11.2c1,0.5,1.6,1.6,1.2,3.7
			c-0.6,3.9-4.1,8.6-4.1,15.2c0,5.4,5,7.1,7,7.1c1.8,0,4.3-0.7,4.9-2.6C70.5-12.4,70.4-12.9,70-12.9"/>
		<path class="st3" d="M216.9-43.3c0.8,0,1.5,0.6,1.5,1.5c0,0.8-0.6,1.5-1.5,1.5c-0.8,0-1.5-0.7-1.5-1.5
			C215.4-42.6,216.1-43.3,216.9-43.3L216.9-43.3z M216.9-43c-0.6,0-1.2,0.6-1.2,1.3c0,0.7,0.5,1.3,1.2,1.3c0.7,0,1.2-0.6,1.2-1.3
			C218.1-42.5,217.5-43,216.9-43L216.9-43z M216.6-40.9h-0.3v-1.7c0.1,0,0.3,0,0.5,0c0.2,0,0.4,0.1,0.5,0.1c0.1,0.1,0.2,0.2,0.2,0.3
			c0,0.2-0.1,0.3-0.3,0.4v0c0.1,0,0.2,0.2,0.3,0.4c0,0.3,0.1,0.3,0.1,0.4h-0.3c0-0.1-0.1-0.2-0.1-0.4c-0.1-0.2-0.2-0.3-0.4-0.3h-0.2
			V-40.9z M216.6-41.8h0.2c0.2,0,0.4-0.1,0.4-0.3c0-0.1-0.1-0.3-0.4-0.3c-0.1,0-0.2,0-0.2,0V-41.8z"/>
	</g>
	<g class="st1">
		<defs>
			<rect id="SVGID_1_" x="-102.5" y="-73" width="120" height="180"/>
		</defs>
		<clipPath id="SVGID_2_">
			<use xlink:href="#SVGID_1_"  style="overflow:visible;"/>
		</clipPath>
		<g class="st6">
			<path class="st3" d="M1.4-7.5C-4.8-6.8-11-6.3-17.3-6.2c-10.2,0.1-20.9-0.4-30.7-3.6c-8.9-3-16.6-8.4-24.5-13.3
				c-9.2-5.9-19.3-10.7-30.1-13.3v143.8h43.6c9.6-76.6,59.6-78.1,77.2-76.1V-9.5C12.1-8.5,2.8-7.6,1.4-7.5z"/>
			<path class="st2" d="M19,39.2l-0.2-18.4c0,0.8-16.6,3.5-17.9,3.8c-3.6,0.9-7.3,1.6-11,2.1c-7,0.9-15.4,1.6-22.3-0.4
				c-3.5-1-6.8-3.4-10.1-4.9c-7-3.2-14.7-5.5-22.5-5.4c-5.6,0-11.5,0.5-16.7,2.6c-4.3,1.8-8.9,5.2-9.7,10.2
				c-0.8,4.9,3.9,8.2,8.2,7.5c6.1-1.1,11.5-2.1,17.8-1.2c29.5,4.6-12.9,69-15,72.2h21.8c0.6-0.9,4.6-6.8,10.1-18.4
				c5.6-11.8,6.4,14.9,6.4,18.4h17.8C-42.6,25.3,19,39.2,19,39.2z"/>
			<path class="st3" d="M-16.9-34c0,10-8.1,18.1-18.1,18.1c-10,0-18.1-8.1-18.1-18.1c0-10,8.1-18.1,18.1-18.1
				C-25-52.1-16.9-44-16.9-34z"/>
			<circle class="st2" cx="-25" cy="11.4" r="9.9"/>
		</g>
	</g>
	<g class="st1">
		<polygon points="33.5,11.5 61.7,11.5 61.7,17.7 40.6,17.7 40.6,35.9 59.8,35.9 59.8,42.2 40.6,42.2 40.6,56.9 33.5,56.9 		"/>
		<path d="M79.1,11h0.8l19.9,45.9h-7.3l-2.6-6.4H69.1l-2.6,6.4h-6.8L79.1,11z M87.3,44.5l-5.7-14.2c-1.1-2.7-2.3-6.7-2.3-6.7
			s-1.1,4.1-2.2,6.7l-5.7,14.2H87.3z"/>
		<path d="M102.9,11h0.7l21.7,25.4L146.8,11h0.7v45.9h-6.7V33.3c0-2.5,0.3-6.5,0.3-6.5s-2.2,3.4-4.1,5.5L125.6,46h-0.8l-11.4-13.8
			c-1.7-2.1-4-5.5-4-5.5s0.3,4,0.3,6.5v23.6h-6.8V11z"/>
		<rect x="153.1" y="11.5" width="7" height="45.4"/>
		<polygon points="165.6,11.5 172.7,11.5 172.7,50.7 193.7,50.7 193.7,56.9 165.6,56.9 		"/>
		<path d="M201.9,42.5l-17.2-31.1h7.8l10.3,18.7c1.4,2.5,2.7,6.5,2.7,6.5s1.4-4,2.7-6.5l10-18.7h7.3L209,42.1v14.8h-7.1V42.5z"/>
	</g>
	<g class="st1">
		<g>
			<path d="M54.6,95.8h-4.1l-6.3-8.9c-1.1,0.2-2.3,0.3-3.4,0.3h-3.9v8.6h-3.4V63.3h7.3c8.9,0,13.5,5,13.5,12c0,4.9-2.3,8.7-6.8,10.5
				L54.6,95.8z M40.6,84.2c7.4,0,10.1-3.8,10.1-8.9c0-5.1-2.8-8.9-10.1-8.9h-3.7v17.8H40.6z"/>
			<polygon points="58.9,63.3 78.6,63.3 78.6,66.4 62.3,66.4 62.3,81.6 76.9,81.6 76.9,84.7 62.3,84.7 62.3,92.8 79.3,92.8 
				79.3,95.8 58.9,95.8 			"/>
			<path d="M82.4,63.3H86L92.9,85c0.4,1.4,0.9,3.5,0.9,3.5s0.5-2.2,1.1-3.5l8.5-22h0.6l8.5,22c0.5,1.4,1.1,3.5,1.1,3.5
				s0.5-2.2,0.9-3.5l6.8-21.6h3.5l-10.7,32.8h-0.6L104.5,73c-0.5-1.3-0.9-3.2-0.9-3.2s-0.5,1.9-1,3.2l-8.9,23.1h-0.6L82.4,63.3z"/>
			<path d="M133.8,63h0.6l13.8,32.8h-3.6l-2.2-5.4h-16.4l-2.2,5.4h-3.4L133.8,63z M141.1,87.4L135.4,73c-0.6-1.5-1.2-3.9-1.2-3.9
				s-0.7,2.3-1.3,3.9l-5.7,14.4H141.1z"/>
			<path d="M172.3,95.8h-4.1l-6.3-8.9c-1.1,0.2-2.3,0.3-3.4,0.3h-3.9v8.6h-3.4V63.3h7.3c8.9,0,13.5,5,13.5,12
				c0,4.9-2.3,8.7-6.8,10.5L172.3,95.8z M158.4,84.2c7.4,0,10.1-3.8,10.1-8.9c0-5.1-2.8-8.9-10.1-8.9h-3.7v17.8H158.4z"/>
			<path d="M176.6,63.3h7.9c10.8,0,17.6,6.4,17.6,16.2c0,9.8-6.7,16.2-17.6,16.2h-7.9V63.3z M184.3,92.7c9.6,0,14.2-5.4,14.2-13.1
				c0-7.7-4.6-13.1-14.2-13.1h-4.2v26.3H184.3z"/>
		</g>
		<path d="M202.4,90l2.7-1.4c1.4,2.5,3.5,4.7,7.8,4.7c3.5,0,6.3-2,6.3-5.2c0-3.1-1.9-4.6-5.7-6.3l-2.4-1.1c-4.3-2-6.7-4.1-6.7-8.3
			c0-4.4,3.4-7.3,8-7.3c4.1,0,6.6,1.9,8.2,4.5l-2.6,1.6c-1.2-1.9-2.8-3.3-5.6-3.3c-3,0-4.8,1.7-4.8,4.3c0,2.7,1.4,3.9,4.8,5.4
			l2.4,1.1c5,2.2,7.6,4.7,7.6,9.3c0,5-4,8-9.4,8C207.2,96.2,204,93.3,202.4,90"/>
		<rect x="211.5" y="62" width="2.1" height="3.6"/>
		<rect x="211.5" y="96.1" width="2.1" height="3.5"/>
	</g>
</g>
<g id="Orig_Font_Red" class="st0">
	<g class="st1">
		<polygon points="41.5,52.5 69.7,52.5 69.7,58.7 48.6,58.7 48.6,76.9 67.8,76.9 67.8,83.2 48.6,83.2 48.6,97.9 41.5,97.9 		"/>
		<path d="M87.1,52h0.8l19.9,45.9h-7.3l-2.6-6.4H77.1l-2.6,6.4h-6.8L87.1,52z M95.3,85.5l-5.7-14.2c-1.1-2.7-2.3-6.7-2.3-6.7
			s-1.1,4.1-2.2,6.7l-5.7,14.2H95.3z"/>
		<path d="M110.9,52h0.7l21.7,25.4L154.8,52h0.7v45.9h-6.7V74.3c0-2.5,0.3-6.5,0.3-6.5s-2.2,3.4-4.1,5.5L133.6,87h-0.8l-11.4-13.8
			c-1.7-2.1-4-5.5-4-5.5s0.3,4,0.3,6.5v23.6h-6.8V52z"/>
		<rect x="161.1" y="52.5" width="7" height="45.4"/>
		<polygon points="173.6,52.5 180.7,52.5 180.7,91.7 201.7,91.7 201.7,97.9 173.6,97.9 		"/>
		<path d="M209.9,83.5l-17.2-31.1h7.8l10.3,18.7c1.4,2.5,2.7,6.5,2.7,6.5s1.4-4,2.7-6.5l10-18.7h7.3L217,83.1v14.8h-7.1V83.5z"/>
	</g>
	<g class="st1">
		<g>
			<path d="M62.6,136.8h-4.1l-6.3-8.9c-1.1,0.2-2.3,0.3-3.4,0.3h-3.9v8.6h-3.4v-32.5h7.3c8.9,0,13.5,5,13.5,12
				c0,4.9-2.3,8.7-6.8,10.5L62.6,136.8z M48.6,125.2c7.4,0,10.1-3.8,10.1-8.9c0-5.1-2.8-8.9-10.1-8.9h-3.7v17.8H48.6z"/>
			<polygon points="66.9,104.3 86.6,104.3 86.6,107.4 70.3,107.4 70.3,122.6 84.9,122.6 84.9,125.7 70.3,125.7 70.3,133.8 
				87.3,133.8 87.3,136.8 66.9,136.8 			"/>
			<path d="M90.4,104.3H94l6.8,21.6c0.4,1.4,0.9,3.5,0.9,3.5s0.5-2.2,1.1-3.5l8.5-22h0.6l8.5,22c0.5,1.4,1.1,3.5,1.1,3.5
				s0.5-2.2,0.9-3.5l6.8-21.6h3.5l-10.7,32.8h-0.6l-8.8-23.1c-0.5-1.3-0.9-3.2-0.9-3.2s-0.5,1.9-1,3.2l-8.9,23.1h-0.6L90.4,104.3z"
				/>
			<path d="M141.8,104h0.6l13.8,32.8h-3.6l-2.2-5.4h-16.4l-2.2,5.4h-3.4L141.8,104z M149.1,128.4l-5.7-14.4
				c-0.6-1.5-1.2-3.9-1.2-3.9s-0.7,2.3-1.3,3.9l-5.7,14.4H149.1z"/>
			<path d="M180.3,136.8h-4.1l-6.3-8.9c-1.1,0.2-2.3,0.3-3.4,0.3h-3.9v8.6h-3.4v-32.5h7.3c8.9,0,13.5,5,13.5,12
				c0,4.9-2.3,8.7-6.8,10.5L180.3,136.8z M166.4,125.2c7.4,0,10.1-3.8,10.1-8.9c0-5.1-2.8-8.9-10.1-8.9h-3.7v17.8H166.4z"/>
			<path d="M184.6,104.3h7.9c10.8,0,17.6,6.4,17.6,16.2c0,9.8-6.7,16.2-17.6,16.2h-7.9V104.3z M192.3,133.7
				c9.6,0,14.2-5.4,14.2-13.1c0-7.7-4.6-13.1-14.2-13.1h-4.2v26.3H192.3z"/>
		</g>
		<path d="M210.4,131l2.7-1.4c1.4,2.5,3.5,4.7,7.8,4.7c3.5,0,6.3-2,6.3-5.2c0-3.1-1.9-4.6-5.7-6.3l-2.4-1.1c-4.3-2-6.7-4.1-6.7-8.3
			c0-4.4,3.4-7.3,8-7.3c4.1,0,6.6,1.9,8.2,4.5l-2.6,1.6c-1.2-1.9-2.8-3.3-5.6-3.3c-3,0-4.8,1.7-4.8,4.3c0,2.7,1.4,3.9,4.8,5.4
			l2.4,1.1c5,2.2,7.6,4.7,7.6,9.3c0,5-4,8-9.4,8C215.2,137.2,212,134.3,210.4,131"/>
		<rect x="219.5" y="103" width="2.1" height="3.6"/>
		<rect x="219.5" y="137.1" width="2.1" height="3.5"/>
	</g>
</g>
<g id="Container_x2F_URL_1_" class="st0">
	<g class="st1">
		<rect x="-11.5" y="-11.5" class="st2" width="165" height="120"/>
		<path d="M153-11v119H-11V-11H153 M154-12H-12v121h166V-12L154-12z"/>
	</g>
	<text transform="matrix(1 0 0 1 3.2578 102.4459)" class="st1" style="font-family:'ArialMT'; font-size:24px;">www.kfr.com</text>
</g>
<g id="_x34_0_x25__Web_Page">
	<g>
		<rect x="0.5" y="0.5" class="st2" width="141" height="79"/>
		<path class="st3" d="M141,1v78H1V1H141 M142,0H0v80h142V0L142,0z"/>
	</g>
	<rect x="4" y="4" class="st2" width="134" height="72"/>
	<g>
		<path d="M146.9,0c0.5,0,1.1,0.1,1.6,0.4c0.5,0.3,0.9,0.7,1.2,1.2c0.3,0.5,0.4,1,0.4,1.6c0,0.5-0.1,1.1-0.4,1.6
			c-0.3,0.5-0.7,0.9-1.2,1.2c-0.5,0.3-1,0.4-1.6,0.4c-0.5,0-1.1-0.1-1.6-0.4c-0.5-0.3-0.9-0.7-1.2-1.2c-0.3-0.5-0.4-1-0.4-1.6
			c0-0.6,0.1-1.1,0.4-1.6c0.3-0.5,0.7-0.9,1.2-1.2C145.8,0.1,146.3,0,146.9,0z M146.9,0.6c-0.4,0-0.8,0.1-1.2,0.3
			c-0.4,0.2-0.7,0.5-0.9,0.9c-0.2,0.4-0.3,0.8-0.3,1.3c0,0.4,0.1,0.9,0.3,1.3c0.2,0.4,0.5,0.7,0.9,0.9c0.4,0.2,0.8,0.3,1.3,0.3
			c0.4,0,0.9-0.1,1.3-0.3c0.4-0.2,0.7-0.5,0.9-0.9c0.2-0.4,0.3-0.8,0.3-1.3c0-0.4-0.1-0.9-0.3-1.3c-0.2-0.4-0.5-0.7-0.9-0.9
			C147.7,0.7,147.3,0.6,146.9,0.6z M145.4,4.8V1.5h0.7c0.6,0,1,0,1.1,0c0.2,0,0.4,0.1,0.5,0.1c0.1,0.1,0.2,0.2,0.3,0.3
			c0.1,0.1,0.1,0.3,0.1,0.5c0,0.2-0.1,0.4-0.2,0.6c-0.2,0.2-0.4,0.3-0.7,0.3c0.1,0,0.2,0.1,0.2,0.1c0.1,0,0.1,0.1,0.2,0.3
			c0,0,0.1,0.2,0.2,0.4l0.4,0.7h-0.8l-0.3-0.5c-0.2-0.4-0.3-0.6-0.5-0.7c-0.1-0.1-0.3-0.1-0.5-0.1h-0.2v1.4H145.4z M146.1,2.9h0.3
			c0.4,0,0.6,0,0.7,0c0.1,0,0.2-0.1,0.2-0.2c0.1-0.1,0.1-0.2,0.1-0.3c0-0.1,0-0.2-0.1-0.2c-0.1-0.1-0.1-0.1-0.2-0.2
			c-0.1,0-0.3,0-0.7,0h-0.3V2.9z"/>
	</g>
	<rect x="4" y="4" class="st7" width="48" height="72"/>
	<g>
		<path class="st3" d="M129.4,16.1c-1.2,0-2.4,1-3.8,2.2c-1.3,1.1-3.9,3.8-6.3,5.3c0.7-1.1,2.3-3.3,2.5-4.4c0.3-1.1-0.6-1.6-1.7-0.9
			c-1.2,0.7-2.4,4.4-4.2,4.4c-0.3,0-0.5-0.2-0.5-0.5c0-1.1,1.7-3.2,4.6-4.4c0.5-0.2,0.6-0.5,0.6-0.7c0-0.1,0-0.6-0.9-0.6
			c-2.9,0-6.9,3.4-7.5,6.1c-0.6,0.6-1.6,1.4-2.9,2c1.5-2.1,2.7-3.8,3.4-5.5c0.8-2-0.3-2.3-1.4-1.7c-1.1,0.6-1.9,2.2-2.2,2.8
			c-0.3,0.6-0.6,1.4-1.6,2.2c-1,0.8-2,0.6-1.2-0.9c0.6-1.3,2-2.8,3.3-3.4c0.3-0.2,0.5-0.2,0.5-0.6c0-0.6-0.7-1-1.7-0.6
			c-1.4,0.6-2,1-3.2,1c-0.9,0-1.4-0.2-1.8-0.4c-0.5-0.2-0.9-0.2-1.1-0.1c-0.2,0.1-0.5,0.2-0.7,0.5c-0.2,0.2-0.4,0.6-0.4,0.8
			c-0.3,1.6-1.7,4.6-2.8,4.6c-0.4,0-0.8-0.1-0.7-0.9c0.2-1.4,1.8-3.2,2.2-3.6c0.4-0.4,1.1-0.6,1.2-1c0-0.3-0.2-0.7-0.9-0.7
			c-2.2,0-5.2,3.1-5.5,5.9c-0.3,0.3-0.8,0.6-1.2,0.6c-1,0-1.3-1-1.3-1.7c2.7-2.5,7.9-7.9,8-11.8c0-0.9-0.4-1.4-1.2-1.4
			c-1.9,0-4.6,2.8-6.3,5c-2.1,2.7-3.3,5.9-3.8,8.3c-1.5,1.3-2.1,1.4-2.8,1.4c-0.9,0-1.2-0.7-1.2-1.2c2.5-2.3,7-7.8,7.1-10.5
			c0-0.8-0.4-1.2-1.2-1.2c-1.7,0-4.2,1.8-6,4.2c-1.8,2.4-2.9,5.2-3.2,7.8c-1.3,1.2-2.3,1.4-3.1,1.4c-0.5,0-0.9-0.3-0.9-0.5
			c1.2-0.7,3.8-2.4,3.8-4.9c0-1.3-0.8-1.8-1.7-1.8c-2.1,0-5.5,2.7-5.5,6.3c0,0.1,0,0.3,0,0.4c-1,0.3-1.6,0.7-1.5,1.4
			c0.1,0.6,0.9,0.6,1.9,0.2C75,25.3,76,26,77.4,26c1.9,0,3.4-0.9,4.5-1.9c0.5,1.1,1.7,1.7,2.9,1.7c1.5,0,3-1,4.2-2
			c0.1,0.9,1,2.2,2.6,2.2c1.4,0,2.5-0.8,3.3-1.7c0.2,0.9,1,1.6,2.1,1.6c3.5,0,5.5-5,6-6.8c0.1-0.2,0.3-0.3,0.4-0.2
			c0.6,0.2,1,0.3,1.8,0.2c-1.3,1.1-2.5,2.9-2.5,4.2c0,1.3,1.1,1.9,2,1.9c0.8,0,1.9-0.5,2.7-1.2c-0.2,0.4-0.4,1-0.9,1.4
			c-0.8,0.2-3,1-4.4,1.9c-1.3,0.8-2.7,2.1-2.7,3.6c0,0.8,0.7,1.7,2.2,1.7c2.6,0,4.4-1.7,6.9-6.2c2-0.9,3.2-1.6,4-2.3
			c0.3,0.6,1,0.9,1.7,0.9c1,0,1.6-0.3,2.4-0.9c-0.1,0.3-0.3,0.7-0.6,1c-1.5,0.6-3.2,1.4-4.1,1.9c-2.4,1.4-2.9,2.7-2.9,3.7
			c0,0.6,0.5,1.7,2.1,1.7c3.5,0,5.6-4.3,7-6.8c1-0.5,2.5-1.5,4-2.7c-0.1,0.2-0.1,0.4-0.1,0.6c0,1.1,1,2.1,2.6,2.1
			c3.2,0,4.2-2.3,4.1-4.9c0-0.8-0.1-1.5-0.1-1.8c0-0.8,0.2-1.2,0.9-1.2c0.7,0,1.2-0.1,1.2-0.7C130.9,16.5,130.3,16.1,129.4,16.1
			 M97.4,11.7c0.1,0,0.1,0.1,0.1,0.2c0,1-2.6,5-5,7.4C94,15,96.8,11.7,97.4,11.7 M77.1,21.8c0.1-1.8,1.5-3.2,2.1-3.2
			c0.2,0,0.3,0.1,0.3,0.4C79.5,19.6,78.6,20.9,77.1,21.8 M89.1,13.1c0.1,0,0.2,0.1,0.1,0.2c0,0.7-1.9,4.1-4.2,6.5
			C86.3,16,88.3,13.1,89.1,13.1 M102.1,30.5c-0.2,0-0.3-0.1-0.3-0.3c0-1.1,2.4-2.4,3.7-2.8C105,28.2,103,30.5,102.1,30.5
			 M111.8,30.5c-0.2,0-0.2-0.1-0.2-0.3c0-1,2.2-2.5,3.5-2.9C114.3,28.5,112.5,30.5,111.8,30.5 M125,23.6c-0.2,0-0.4,0-0.4-0.5
			c0-0.4-0.2-0.8-0.8-0.8c-0.1,0-0.2,0-0.3,0c1.4-1.1,2.5-2.3,3.5-3.1C126.8,21.7,126.2,23.6,125,23.6"/>
		<path class="st3" d="M123.8,15.7c0,0.4-0.5,0.6-0.6,1c0,0.2,0.1,0.4,0.4,0.4c0.7,0,2.7-1.1,2.9-2.9c0.1-0.9-0.5-1.7-1.4-1.7
			c-1,0-1.9,0.9-1.9,1.7C123,15,123.8,15.3,123.8,15.7"/>
		<path class="st3" d="M73,28c-0.6,0-0.9-0.8-0.9-1.7c0-1,0.6-3.1,0.9-4.2c0.3-1,0.4-2.7-0.6-3.6c3.5-1.4,8.8-6.3,9.5-7.3
			c0.7-1.1,0.8-2.4-0.1-3.1c-0.9-0.7-2.4,0.2-3.3,1.5c-2.5,3.5-3.9,5.3-5.6,6.7c-1.3,1.1-1.9,1.2-2.6,1.2c0,0,2.4-4,3.3-5.1
			c1.1-1.4-0.3-1.9-1.5-1c-0.3,0.2-2.3,1.6-4.8,2.9c-4.4,2.3-5.5,3.3-5.5,4.7c0,0.6,0.4,1.4,1.3,1.4c1.7,0,3.4-3.1,4.3-3.9
			c0.3-0.3,1.1-1,1.4-1c0.1,0,0.2,0.1,0.2,0.2c0,0.6-1.2,2.3-2.9,4.2c-2.6,2.8-4.7,3.9-4.7,5.7c0,1.2,0.9,1.8,1.8,1.8
			c2,0,3.3-2.7,4.1-4c0.3-0.5,2.1-3.8,2.4-4.5c0.4,0.2,0.6,0.6,0.5,1.5c-0.2,1.6-1.6,3.4-1.6,6.1c0,2.1,2,2.8,2.8,2.8
			c0.7,0,1.7-0.3,1.9-1C73.2,28.2,73.2,28.1,73,28"/>
		<path class="st3" d="M131.8,15.9c0.3,0,0.6,0.3,0.6,0.6c0,0.3-0.3,0.6-0.6,0.6c-0.3,0-0.6-0.3-0.6-0.6
			C131.2,16.2,131.4,15.9,131.8,15.9L131.8,15.9z M131.8,16c-0.3,0-0.5,0.2-0.5,0.5c0,0.3,0.2,0.5,0.5,0.5c0.3,0,0.5-0.2,0.5-0.5
			C132.2,16.2,132,16,131.8,16L131.8,16z M131.6,16.8h-0.1v-0.7c0.1,0,0.1,0,0.2,0c0.1,0,0.2,0,0.2,0.1c0,0,0.1,0.1,0.1,0.1
			c0,0.1-0.1,0.1-0.1,0.2v0c0.1,0,0.1,0.1,0.1,0.2c0,0.1,0,0.1,0,0.2h-0.1c0,0,0-0.1,0-0.2c0-0.1-0.1-0.1-0.1-0.1h-0.1V16.8z
			 M131.6,16.5L131.6,16.5c0.2,0,0.2,0,0.2-0.1c0-0.1,0-0.1-0.2-0.1c0,0-0.1,0-0.1,0V16.5z"/>
	</g>
	<g>
		<defs>
			<rect id="SVGID_3_" x="4" y="4" width="48" height="72"/>
		</defs>
		<clipPath id="SVGID_4_">
			<use xlink:href="#SVGID_3_"  style="overflow:visible;"/>
		</clipPath>
		<g class="st8">
			<path class="st3" d="M45.6,30.2c-2.5,0.3-5,0.5-7.5,0.5c-4.1,0.1-8.4-0.1-12.3-1.4c-3.6-1.2-6.7-3.3-9.8-5.3
				c-3.7-2.3-7.7-4.3-12-5.3v57.5h17.4c3.9-30.6,23.8-31.3,30.9-30.4V29.4C49.9,29.8,46.1,30.2,45.6,30.2z"/>
			<path class="st2" d="M52.6,48.9l-0.1-7.4c0,0.3-6.6,1.4-7.1,1.5c-1.4,0.4-2.9,0.6-4.4,0.8c-2.8,0.3-6.2,0.6-8.9-0.2
				c-1.4-0.4-2.7-1.3-4-1.9c-2.8-1.3-5.9-2.2-9-2.2c-2.2,0-4.6,0.2-6.7,1c-1.7,0.7-3.5,2.1-3.9,4.1c-0.3,2,1.6,3.3,3.3,3
				c2.4-0.4,4.6-0.9,7.1-0.5c11.8,1.8-5.2,27.6-6,28.9h8.7c0.2-0.4,1.8-2.7,4-7.4c2.2-4.7,2.5,6,2.6,7.4h7.1
				C27.9,43.3,52.6,48.9,52.6,48.9z"/>
			<circle class="st3" cx="31" cy="19.6" r="7.2"/>
			<circle class="st2" cx="35" cy="37.8" r="4"/>
		</g>
	</g>
	<g>
		<polygon points="58.4,37.8 69.7,37.8 69.7,40.3 61.2,40.3 61.2,47.6 68.9,47.6 68.9,50.1 61.2,50.1 61.2,56 58.4,56 		"/>
		<path d="M76.6,37.6H77l8,18.4H82l-1-2.6h-8.3l-1,2.6h-2.7L76.6,37.6z M79.9,51l-2.3-5.7c-0.5-1.1-0.9-2.7-0.9-2.7
			s-0.4,1.6-0.9,2.7L73.6,51H79.9z"/>
		<path d="M86.2,37.6h0.3l8.7,10.2l8.6-10.2h0.3V56h-2.7v-9.4c0-1,0.1-2.6,0.1-2.6s-0.9,1.4-1.6,2.2l-4.6,5.5h-0.3l-4.6-5.5
			c-0.7-0.8-1.6-2.2-1.6-2.2s0.1,1.6,0.1,2.6V56h-2.7V37.6z"/>
		<rect x="106.2" y="37.8" width="2.8" height="18.2"/>
		<polygon points="111.2,37.8 114.1,37.8 114.1,53.5 122.5,53.5 122.5,56 111.2,56 		"/>
		<path d="M125.8,50.2l-6.9-12.4h3.1l4.1,7.5c0.6,1,1.1,2.6,1.1,2.6s0.6-1.6,1.1-2.6l4-7.5h2.9L128.6,50V56h-2.8V50.2z"/>
	</g>
	<g>
		<g>
			<path d="M66.8,71.5h-1.6L62.7,68c-0.4,0.1-0.9,0.1-1.4,0.1h-1.6v3.4h-1.4v-13h2.9c3.6,0,5.4,2,5.4,4.8c0,1.9-0.9,3.5-2.7,4.2
				L66.8,71.5z M61.2,66.9c2.9,0,4-1.5,4-3.6c0-2-1.1-3.6-4-3.6h-1.5v7.1H61.2z"/>
			<polygon points="68.5,58.5 76.5,58.5 76.5,59.8 69.9,59.8 69.9,65.9 75.8,65.9 75.8,67.1 69.9,67.1 69.9,70.3 76.7,70.3 
				76.7,71.5 68.5,71.5 			"/>
			<path d="M78,58.5h1.5l2.7,8.7c0.2,0.6,0.4,1.4,0.4,1.4s0.2-0.9,0.4-1.4l3.4-8.8h0.2l3.4,8.8c0.2,0.6,0.4,1.4,0.4,1.4
				s0.2-0.9,0.4-1.4l2.7-8.7h1.4l-4.3,13.1h-0.2l-3.5-9.3c-0.2-0.5-0.4-1.3-0.4-1.3s-0.2,0.7-0.4,1.3l-3.6,9.3h-0.2L78,58.5z"/>
			<path d="M98.5,58.4h0.2l5.5,13.1h-1.5l-0.9-2.2h-6.6l-0.9,2.2h-1.4L98.5,58.4z M101.4,68.2l-2.3-5.8c-0.2-0.6-0.5-1.6-0.5-1.6
				s-0.3,0.9-0.5,1.6l-2.3,5.8H101.4z"/>
			<path d="M113.9,71.5h-1.6l-2.5-3.6c-0.4,0.1-0.9,0.1-1.4,0.1h-1.5v3.4h-1.4v-13h2.9c3.6,0,5.4,2,5.4,4.8c0,1.9-0.9,3.5-2.7,4.2
				L113.9,71.5z M108.4,66.9c2.9,0,4-1.5,4-3.6c0-2-1.1-3.6-4-3.6h-1.5v7.1H108.4z"/>
			<path d="M115.7,58.5h3.2c4.3,0,7,2.6,7,6.5c0,3.9-2.7,6.5-7,6.5h-3.2V58.5z M118.7,70.3c3.8,0,5.7-2.2,5.7-5.3
				c0-3.1-1.8-5.3-5.7-5.3H117v10.5H118.7z"/>
		</g>
		<path d="M126,69.2l1.1-0.6c0.6,1,1.4,1.9,3.1,1.9c1.4,0,2.5-0.8,2.5-2.1c0-1.2-0.8-1.9-2.3-2.5l-1-0.4c-1.7-0.8-2.7-1.6-2.7-3.3
			c0-1.7,1.4-2.9,3.2-2.9c1.6,0,2.6,0.8,3.3,1.8l-1,0.6c-0.5-0.7-1.1-1.3-2.2-1.3c-1.2,0-1.9,0.7-1.9,1.7c0,1.1,0.6,1.6,1.9,2.2
			l1,0.4c2,0.9,3.1,1.9,3.1,3.7c0,2-1.6,3.2-3.8,3.2C127.9,71.7,126.6,70.5,126,69.2"/>
		<rect x="129.6" y="58" width="0.8" height="1.4"/>
		<rect x="129.6" y="71.6" width="0.8" height="1.4"/>
	</g>
</g>
</svg>
